<?xml version="1.0" encoding="UTF-8" standalone="no"?>
<!-- Created with Inkscape (http://www.inkscape.org/) -->

<svg
   xmlns:dc="http://purl.org/dc/elements/1.1/"
   xmlns:cc="http://creativecommons.org/ns#"
   xmlns:rdf="http://www.w3.org/1999/02/22-rdf-syntax-ns#"
   xmlns:svg="http://www.w3.org/2000/svg"
   xmlns="http://www.w3.org/2000/svg"
   xmlns:sodipodi="http://sodipodi.sourceforge.net/DTD/sodipodi-0.dtd"
   xmlns:inkscape="http://www.inkscape.org/namespaces/inkscape"
   id="svg2"
   version="1.1"
   inkscape:version="0.91 r13725"
   xml:space="preserve"
   width="810"
   height="635.9541"
   viewBox="0 0 809.99999 635.9541"
   sodipodi:docname="publicdomainq-fossil_footprint_dinosaur.svg"
   inkscape:export-filename="/media/sdb1/_GRAFIKA/Publicdomainq/publicdomainq-fossil_footprint_dinosaur.png"
   inkscape:export-xdpi="135.0099"
   inkscape:export-ydpi="135.0099"><title
     id="title7998">Fossil dinosaur footprint</title><metadata
     id="metadata8"><rdf:RDF><cc:Work
         rdf:about=""><dc:format>image/svg+xml</dc:format><dc:type
           rdf:resource="http://purl.org/dc/dcmitype/StillImage" /><dc:title>Fossil dinosaur footprint</dc:title><cc:license
           rdf:resource="http://creativecommons.org/publicdomain/zero/1.0/" /><dc:subject><rdf:Bag><rdf:li>fossil</rdf:li><rdf:li>dinosaur</rdf:li><rdf:li>footprint</rdf:li><rdf:li>paleontology</rdf:li><rdf:li>geology</rdf:li><rdf:li>stone</rdf:li><rdf:li>rock</rdf:li><rdf:li>prehistoric</rdf:li><rdf:li>reptile</rdf:li><rdf:li>jurassic</rdf:li></rdf:Bag></dc:subject><dc:description>This image was adapted from a picture posted to publicdomainq.net. All of the images on these sites are in the public domain i.e. CC0. This site is only in Japanese but can be easily navigated with Google Translate.</dc:description></cc:Work><cc:License
         rdf:about="http://creativecommons.org/publicdomain/zero/1.0/"><cc:permits
           rdf:resource="http://creativecommons.org/ns#Reproduction" /><cc:permits
           rdf:resource="http://creativecommons.org/ns#Distribution" /><cc:permits
           rdf:resource="http://creativecommons.org/ns#DerivativeWorks" /></cc:License></rdf:RDF></metadata><defs
     id="defs6" /><sodipodi:namedview
     pagecolor="#ffffff"
     bordercolor="#666666"
     borderopacity="1"
     objecttolerance="10"
     gridtolerance="10"
     guidetolerance="10"
     inkscape:pageopacity="0"
     inkscape:pageshadow="2"
     inkscape:window-width="1920"
     inkscape:window-height="1125"
     id="namedview4"
     showgrid="false"
     inkscape:zoom="0.36429252"
     inkscape:cx="587.70219"
     inkscape:cy="55.881779"
     inkscape:window-x="0"
     inkscape:window-y="0"
     inkscape:window-maximized="1"
     inkscape:current-layer="svg2"
     fit-margin-top="5"
     fit-margin-left="5"
     fit-margin-bottom="5"
     fit-margin-right="5" /><g
     transform="matrix(0.1495397,0,0,-0.1495397,-58.36183,794.15722)"
     id="g7952"><path
       inkscape:connector-curvature="0"
       id="path14"
       style="fill:#7b7979;fill-opacity:1;fill-rule:nonzero;stroke:none"
       d="m 5440.73,3463.51 c -127.69,109.04 -198.35,251.77 -372.09,624.08 -1366.67,22.85 -2723.49,16.52 -4095.492,55.62 -232.949,-418.84 -417.656,-833.06 -417.656,-833.06 0,0 -289.969,-923.91 -9.64,-1225.41 125.507,-134.79 -166.641,-627.19 491.208,-773.29 l 1285.53,43.31 593.99,-263.39 750.44,0 1408.3,150.89 c 0,0 659.24,230.41 659.24,705.37 0,475.17 196.52,1097.08 -293.83,1515.88" /><path
       inkscape:connector-curvature="0"
       id="path16"
       style="fill:#656263;fill-opacity:1;fill-rule:nonzero;stroke:none"
       d="m 1015.75,1912.12 -120.367,533.67 -11.68,131.49 -95.055,-87.68 0,-916.87 227.102,339.39" /><path
       inkscape:connector-curvature="0"
       id="path18"
       style="fill:#656263;fill-opacity:1;fill-rule:nonzero;stroke:none"
       d="m 5538.54,2454.73 41.34,-294.41 149.91,291.66 -121.43,138.3 -69.82,-135.55" /><path
       inkscape:connector-curvature="0"
       id="path20"
       style="fill:#918f90;fill-opacity:1;fill-rule:nonzero;stroke:none"
       d="m 5632.96,2927.51 c 0.35,5.41 1.05,10.68 1.2,16.09 -20.89,222.54 -305.36,695.75 -365.62,958.23 -83.39,363.51 -449.5,1239.25 -1071,1341.34 -621.14,102.17 -2208.16,-64.25 -2584.13,0 -328.15,55.98 -634.922,-968.34 -952.449,-1530.71 -5.625,-22.5 -78.047,-260.28 -127.766,-433.95 l -46.894,-212.06 0,-109.9 c 0,-115.39 43.879,-220.02 115.176,-297.15 l 43.164,-205.66 409.079,-291.66 495.14,-1.41 487.61,30.1 487.62,158.34 487.62,-205.8 625.08,-30.3 350.5,232.94 488.05,-232.94 478.75,227.53 447.34,83.75 264.09,318.08 -32.56,185.14" /><path
       inkscape:connector-curvature="0"
       id="path22"
       style="fill:#656263;fill-opacity:1;fill-rule:nonzero;stroke:none"
       d="m 2524.09,2349.11 97.33,-705.09 -97.33,-378.56 347.91,307.27 139.71,570.58 -487.62,205.8" /><path
       inkscape:connector-curvature="0"
       id="path24"
       style="fill:#656263;fill-opacity:1;fill-rule:nonzero;stroke:none"
       d="m 4475.34,2113.01 233.45,-909.99 -618.98,-74.53 -102.52,1217.46 c 0,0 353.98,-134.44 488.05,-232.94" /><path
       inkscape:connector-curvature="0"
       id="path26"
       style="fill:#7b7979;fill-opacity:1;fill-rule:nonzero;stroke:none"
       d="m 3623.86,2548.31 c -85.16,0 -141.47,91.4 -154.07,133.03 -12.08,40.78 54.09,132.75 197.03,273.51 5.47,5.28 12.65,8.38 20.39,8.44 67.64,0 178.03,-45.2 221.9,-103.71 25.53,-33.89 24.19,-64.12 18.57,-83.46 -28.82,-99.35 -185.07,-183.73 -251.02,-215.37 -17.08,-8.22 -34.95,-12.44 -52.8,-12.44" /><path
       inkscape:connector-curvature="0"
       id="path28"
       style="fill:#7b7979;fill-opacity:1;fill-rule:nonzero;stroke:none"
       d="m 3279.81,2391.59 c -31.64,0 -45.21,20.45 -47.32,37.97 -7.24,60.53 111.59,160.94 183.16,215.43 5.37,4 11.68,5.97 18.01,5.97 6.97,0 13.79,-2.32 19.34,-7.09 l 116.99,-100.7 c 9.49,-8.14 12.87,-21.44 8.44,-33.04 -4.43,-11.6 -15.53,-19.12 -27.78,-19.12 l -0.54,0 c -17.03,0 -73.84,-25.88 -115.12,-44.65 -72.7,-33.05 -122.83,-54.77 -155.18,-54.77" /><path
       inkscape:connector-curvature="0"
       id="path30"
       style="fill:#7b7979;fill-opacity:1;fill-rule:nonzero;stroke:none"
       d="m 4042.71,2771.55 c -6.05,0 -11.88,1.76 -17.08,5.28 -237.17,164.53 -304.47,176.83 -307.28,177.18 -15.74,2.6 -27.7,17.31 -25.65,33.19 3.15,25.25 33.81,248.49 137.8,311.07 54.14,32.62 97.81,46.47 146.2,46.47 63.48,0 134.91,-25.1 231.32,-81.57 90.91,-53.22 119.73,-119.23 127.75,-165.29 14,-79.95 -22.98,-149.84 -44.57,-175.57 -37.34,-44.8 -202.3,-130.72 -235,-147.46 -4.28,-2.24 -8.99,-3.3 -13.49,-3.3" /><path
       inkscape:connector-curvature="0"
       id="path32"
       style="fill:#7b7979;fill-opacity:1;fill-rule:nonzero;stroke:none"
       d="m 4404.68,2950.64 c -10.82,0 -20.82,5.84 -26.1,15.46 -5.97,11.11 -4.42,24.61 3.87,33.97 29.26,32.83 -4.91,119.53 -26,156.44 -7.89,13.72 -3.66,31.16 9.69,39.73 0,0 154.56,99.49 214.9,137.11 64.73,40.57 263.01,110.18 343.46,125.02 12.72,2.38 24.67,3.52 35.57,3.52 31.99,0 57.45,-10.06 75.58,-29.97 26.02,-28.53 35.31,-73.96 28.98,-143.22 -10.83,-119.04 -188.29,-194.63 -305.86,-244.55 -14.48,-6.25 -27.71,-11.87 -38.96,-16.94 -94.7,-42.61 -301.85,-74.82 -310.64,-76.22 -1.41,-0.28 -2.95,-0.35 -4.49,-0.35" /><path
       inkscape:connector-curvature="0"
       id="path34"
       style="fill:#7b7979;fill-opacity:1;fill-rule:nonzero;stroke:none"
       d="m 5130.72,3311.84 c -10.95,1.2 -20.39,8.5 -24.32,18.78 -25.79,67.2 -71.1,144.14 -97.32,151.37 -10.83,2.96 -19.13,11.96 -21.24,23 -2.17,11.17 2.2,22.5 11.25,29.24 61.61,46.62 153.15,126.42 163.27,158.55 4.02,12.39 15.47,20.61 28.33,20.61 1.42,0 2.83,0 4.22,-0.27 14.42,-2.06 25.11,-14.14 25.54,-28.77 0.48,-26.72 3.64,-263.46 -61.75,-359.79 -5.55,-8.22 -14.75,-13.01 -24.61,-13.01 -1.05,0 -2.17,0.08 -3.37,0.29" /><path
       inkscape:connector-curvature="0"
       id="path36"
       style="fill:#7b7979;fill-opacity:1;fill-rule:nonzero;stroke:none"
       d="m 4372.7,3221.55 c -3.46,0 -6.77,0.49 -10.07,1.76 -10.55,3.73 -18.15,13.15 -19.41,24.4 -4.22,34.8 -84.66,72.28 -132.68,94.64 -47.11,21.94 -73.13,34.03 -81.57,55.55 -15.25,38.59 24.83,76.91 252.07,240.96 21.45,15.4 41.78,30.02 59.77,43.24 54.71,40.21 93.87,108.01 128.32,167.77 33.98,58.92 63.28,109.75 104.41,135.41 20.75,13.01 41.84,19.63 62.73,19.63 73.54,0 123.95,-77.99 163.62,-154.27 68.26,-131.27 -221.76,-396.57 -280.62,-429.97 -53.3,-30.08 -181.27,-148 -226.13,-190.89 -5.62,-5.41 -12.93,-8.23 -20.44,-8.23" /><path
       inkscape:connector-curvature="0"
       id="path38"
       style="fill:#7b7979;fill-opacity:1;fill-rule:nonzero;stroke:none"
       d="m 4922.18,3874.13 c -1.97,0 -4.07,0.27 -6.19,0.63 -9.07,1.89 -16.74,8.08 -20.67,16.52 -20.11,42.89 -62.3,107.01 -93.44,115.45 -10.06,2.75 -17.93,10.55 -20.82,20.6 -2.81,9.98 -0.07,20.88 6.96,28.48 1.27,1.34 125.15,133.73 157.78,237.03 4.01,12.37 15.47,20.67 28.33,20.67 l 2.11,0 c 13.57,-0.92 24.82,-11.12 27.15,-24.61 5.56,-31.51 50.41,-311 -61.81,-407.69 -5.42,-4.56 -12.22,-7.08 -19.4,-7.08" /><path
       inkscape:connector-curvature="0"
       id="path40"
       style="fill:#7b7979;fill-opacity:1;fill-rule:nonzero;stroke:none"
       d="m 3835.99,3325.96 c -7.25,0 -14.34,2.6 -19.91,7.67 -6.72,6.05 -10.33,14.97 -9.62,24.11 0.13,2.81 5.62,70.67 51.46,135 115.88,162.64 150.12,259.46 158.35,312.06 16.02,100.27 93.72,145.89 159.19,145.89 19.4,0 36.7,-4.08 49.58,-11.81 30.01,-17.99 67.27,-72.42 78.04,-132.46 10.33,-57.52 -3.72,-112.37 -40.86,-158.69 -80.51,-100.28 -141.04,-255.67 -141.68,-257.29 -3.72,-9.63 -12.31,-16.66 -22.5,-18.42 L 3841.2,3326.4 c -1.7,-0.3 -3.52,-0.44 -5.21,-0.44" /><path
       inkscape:connector-curvature="0"
       id="path42"
       style="fill:#7b7979;fill-opacity:1;fill-rule:nonzero;stroke:none"
       d="m 4329.58,3897.96 c -4.63,0 -9.36,1.05 -13.56,3.16 -36.85,18.99 -144.36,67.93 -198.22,67.93 -10.41,0 -14.14,-2.05 -14.55,-2.18 l -0.98,-0.57 c -4.51,-2.46 -9.43,-3.65 -14.35,-3.65 -10.06,0 -19.81,4.92 -25.38,14.06 -8.5,13.79 -4.79,31.78 9.13,40.43 l 1.28,0.7 c 120.65,73.12 330.04,195.61 376.86,195.61 10.07,0 19.98,-5.28 25.45,-13.85 5.49,-8.65 6.48,-19.34 2.19,-28.48 l -121,-256.21 c -3.45,-7.32 -9.71,-12.87 -17.24,-15.41 -3.17,-1.05 -6.33,-1.54 -9.63,-1.54" /><path
       inkscape:connector-curvature="0"
       id="path44"
       style="fill:#393536;fill-opacity:1;fill-rule:nonzero;stroke:none"
       d="m 3555.45,2636.34 c -13.29,44.16 189.27,243.62 189.27,243.62 37.83,0.58 99.49,-18.62 146.95,-48.16 -33.4,57.88 -146.6,102.6 -204.04,101.82 0,0 -202.64,-199.55 -189.36,-243.63 8.38,-27.99 38.89,-77.56 81.21,-100.12 -11.8,16.93 -20.39,33.81 -24.03,46.47" /><path
       inkscape:connector-curvature="0"
       id="path46"
       style="fill:#393536;fill-opacity:1;fill-rule:nonzero;stroke:none"
       d="m 3490.83,2567.65 55.21,-47.46 c 1.45,0.07 3.21,0.48 4.61,0.48 l -116.99,100.7 c 0,0 -177.96,-135.56 -171.64,-188.29 2.54,-21.53 41.84,-10.49 91.06,9.76 50.06,58.01 137.75,124.81 137.75,124.81" /><path
       inkscape:connector-curvature="0"
       id="path48"
       style="fill:#393536;fill-opacity:1;fill-rule:nonzero;stroke:none"
       d="m 3902.92,3219.17 c 94.57,56.95 173.62,66.37 347.21,-35.23 8.01,-4.79 15.05,-9.71 22.22,-14.64 -17.99,23.91 -43.31,47.19 -79.39,68.21 -173.58,101.6 -252.63,92.32 -347.13,35.37 -94.63,-56.95 -123.67,-289.33 -123.67,-289.33 0,0 15.82,-1.41 61.88,-23.56 11.38,64.47 45.2,214.81 118.88,259.18" /><path
       inkscape:connector-curvature="0"
       id="path50"
       style="fill:#393536;fill-opacity:1;fill-rule:nonzero;stroke:none"
       d="m 4479.63,2993.53 c -3.66,59.27 -40.36,124.1 -40.36,124.1 0,0 154.47,99.35 214.59,136.97 60.19,37.61 253.97,106.31 333.14,120.94 16.46,3.09 30.72,3.3 43.61,1.54 -12.89,47.26 -46.56,62.17 -100.78,52.03 -79.1,-14.55 -272.87,-83.24 -333.06,-120.94 -60.19,-37.62 -214.66,-136.89 -214.66,-136.89 0,0 75.65,-131.27 22.57,-190.9 0,0 31.36,4.79 74.95,13.15" /><path
       inkscape:connector-curvature="0"
       id="path52"
       style="fill:#393536;fill-opacity:1;fill-rule:nonzero;stroke:none"
       d="m 5185.99,3551.8 c 5.9,71.94 4.7,131.84 4.7,131.84 -17.78,-55.4 -173.67,-173.1 -173.67,-173.1 19.9,-5.49 39.87,-27.14 57.66,-53.3 3.59,2.81 62.65,47.75 111.31,94.56" /><path
       inkscape:connector-curvature="0"
       id="path54"
       style="fill:#393536;fill-opacity:1;fill-rule:nonzero;stroke:none"
       d="m 5075.32,3456.4 c 33.61,-49.79 58.77,-115.19 58.77,-115.19 6.2,9.15 11.6,20.27 16.54,32 -21.31,37.62 -48.24,74.89 -75.31,83.19" /><path
       inkscape:connector-curvature="0"
       id="path56"
       style="fill:#393536;fill-opacity:1;fill-rule:nonzero;stroke:none"
       d="m 4515.49,3604.48 c 111.51,81.84 155.67,254.94 230.91,302.05 29.8,18.64 56.52,18.5 81.28,5.84 -40.07,54.78 -84.38,81.57 -138.37,47.82 -75.24,-47.11 -119.48,-220.15 -230.92,-302 -111.51,-81.91 -313.3,-220.29 -301.78,-249.32 3.95,-10.13 29.96,-22.5 62.44,-37.77 32.77,47.41 199.12,161.94 296.44,233.38" /><path
       inkscape:connector-curvature="0"
       id="path58"
       style="fill:#393536;fill-opacity:1;fill-rule:nonzero;stroke:none"
       d="m 4986.51,4138.01 c -0.9,79.17 -12.38,145.75 -12.38,145.75 -35.21,-111.02 -164.52,-248.34 -164.52,-248.34 22.09,-5.98 43.38,-26.08 61.52,-48.87 14.62,15.82 71.16,79.59 115.38,151.46" /><path
       inkscape:connector-curvature="0"
       id="path60"
       style="fill:#393536;fill-opacity:1;fill-rule:nonzero;stroke:none"
       d="m 4878.72,3976.14 c 25.8,-35.15 43.46,-72.43 43.46,-72.43 5.62,4.93 10.54,10.56 15.39,16.53 -16.87,23.29 -37.19,45.08 -58.85,55.9" /><path
       inkscape:connector-curvature="0"
       id="path62"
       style="fill:#393536;fill-opacity:1;fill-rule:nonzero;stroke:none"
       d="m 3939.13,3421.8 c 41.7,58.5 145.2,208 163.62,324.64 16.18,101.95 102.51,128.32 147.46,119.31 -13.44,23.56 -29.13,40.78 -40.42,47.68 -35.11,21.09 -145.71,3.3 -164.14,-113.34 -18.55,-116.58 -121.99,-266.21 -163.68,-324.57 -41.48,-58.36 -45.98,-119.88 -45.98,-119.88 l 74.66,13.22 c 6.68,16.8 15.62,34.94 28.48,52.94" /><path
       inkscape:connector-curvature="0"
       id="path64"
       style="fill:#393536;fill-opacity:1;fill-rule:nonzero;stroke:none"
       d="m 4404.81,4086.89 45.8,96.89 c -42.85,2.46 -363.18,-191.82 -363.18,-191.82 23.56,14.77 74.68,3.31 124.03,-13.84 53.92,31.77 130.65,76.07 193.35,108.77" /><path
       inkscape:connector-curvature="0"
       id="path66"
       style="fill:#7b7979;fill-opacity:1;fill-rule:nonzero;stroke:none"
       d="m 1215.22,3067.35 c -8.64,0 -16.17,1.76 -22.84,5.14 -31.65,15.96 -87.25,64.27 -101.96,125.16 -8.56,35.5 -1.76,70.04 19.78,99.84 42.73,59.14 153.19,198.06 256.2,208.91 1.05,0.06 7.96,0.4 8.93,0.4 19.55,0 48.53,-6.81 75.87,-40.07 47.11,-57.09 68.98,-168.54 57.02,-230.06 -1.4,-7.6 -5.77,-14.28 -11.95,-18.63 -49.91,-35.37 -217.82,-150.69 -281.05,-150.69" /><path
       inkscape:connector-curvature="0"
       id="path68"
       style="fill:#7b7979;fill-opacity:1;fill-rule:nonzero;stroke:none"
       d="m 919.496,2881.03 c -5.976,0 -11.738,0.7 -16.875,2.32 -13.144,4 -23.137,13.5 -27.492,26.15 -12.168,34.67 20.676,84.67 79.668,170.16 26.086,37.62 61.663,89.16 64.333,105.47 2.03,12.3 11.52,22.15 23.83,24.47 1.76,0.35 3.74,0.49 5.42,0.49 10.41,0 20.25,-5.41 25.73,-14.69 l 78.34,-132.89 c 7.16,-12.03 4.77,-27.5 -5.5,-36.99 -36.98,-33.89 -162.7,-144.49 -227.454,-144.49" /><path
       inkscape:connector-curvature="0"
       id="path70"
       style="fill:#7b7979;fill-opacity:1;fill-rule:nonzero;stroke:none"
       d="m 1566.58,3237.02 c -20.88,0 -33.88,0.71 -33.88,0.71 -8.02,0.42 -15.62,4.21 -20.96,10.32 -5.2,6.2 -7.79,14.07 -7.03,22.16 0,1.62 -0.29,69.96 -120.24,332.57 -4.5,9.99 -3.31,21.66 3.37,30.38 22.37,29.25 136.06,176.34 186.68,205.32 21.74,12.37 61.18,25.51 106.52,25.51 57.1,0 160.88,-21.71 214.46,-167.69 74.18,-202.15 45.86,-288.69 -32.27,-377.85 -62.09,-70.8 -212.48,-81.43 -296.65,-81.43" /><path
       inkscape:connector-curvature="0"
       id="path72"
       style="fill:#7b7979;fill-opacity:1;fill-rule:nonzero;stroke:none"
       d="m 1835.73,3854.15 c -6.87,0 -13.49,2.4 -19.12,7.03 -19.69,16.53 -80.57,59.36 -125.37,59.36 -9.54,0 -17.36,-2.05 -24.11,-5.98 -4.72,-2.89 -10.05,-4.3 -15.47,-4.3 -6.53,0 -13.15,2.11 -18.55,6.47 -9.72,7.81 -13.59,20.96 -9.43,32.84 2.81,8.29 71.15,206.44 129.86,292.08 6.96,10.12 14.77,22.07 23.48,35.37 67.3,102.93 169.18,258.4 284.06,258.4 3.73,0 7.25,-0.15 10.78,-0.43 73.95,-6.54 118.39,-25.66 140.34,-60.47 17.85,-28.34 18.43,-63.49 1.81,-107.5 -28.75,-76.58 -132.24,-259.39 -183.65,-315.99 -47.66,-52.74 -172.89,-187.39 -172.89,-187.39 -5.92,-6.11 -13.71,-9.49 -21.74,-9.49" /><path
       inkscape:connector-curvature="0"
       id="path74"
       style="fill:#7b7979;fill-opacity:1;fill-rule:nonzero;stroke:none"
       d="m 2281.81,4419.11 c -3.67,0 -7.18,0.7 -10.7,1.97 -10.54,4.09 -17.86,13.79 -18.98,25.1 -2.39,27.07 -70.11,85.3 -131.63,122.56 -9.49,5.76 -14.89,16.25 -14.2,27.21 0.58,11.11 7.31,20.89 17.58,25.31 32.13,14.36 76.73,21.31 136.19,21.31 107.58,0 223.81,-23.2 228.73,-24.26 14.2,-2.81 24.19,-15.68 23.91,-30.1 -0.57,-14.55 -11.47,-26.5 -25.88,-28.47 -33.4,-4.36 -128.25,-80.22 -184.85,-132.68 -5.55,-5.19 -12.78,-7.95 -20.17,-7.95" /><path
       inkscape:connector-curvature="0"
       id="path76"
       style="fill:#7b7979;fill-opacity:1;fill-rule:nonzero;stroke:none"
       d="m 2034.09,3589.15 c -5.55,0 -15.39,2.68 -20.12,5.55 -19.47,12.17 -26.92,39.87 -40.27,90.08 -13.5,51.25 -36.15,137.11 -69.62,147.22 -10.75,3.38 -18.78,12.39 -20.59,23.56 -1.91,11.11 2.73,22.36 11.73,28.9 1.83,1.33 180.84,132.05 227.95,188.71 45.49,55.06 272.82,220.65 405.49,220.65 27.07,0 49.72,-6.9 67.15,-20.31 82.62,-63.58 119.68,-111.88 124.1,-161.37 2.76,-30.53 -7.94,-59.14 -31.42,-85.16 -32.61,-36.07 -87.88,-55.9 -151.79,-78.96 -64.99,-23.26 -138.59,-49.71 -187.82,-96.6 -16.17,-15.34 -34.32,-32.91 -53.43,-51.41 -161.03,-155.53 -224.87,-210.86 -261.36,-210.86" /><path
       inkscape:connector-curvature="0"
       id="path78"
       style="fill:#7b7979;fill-opacity:1;fill-rule:nonzero;stroke:none"
       d="m 2761.75,4122.39 c -4.36,0 -8.85,1 -13.01,3.03 -9.41,4.57 -15.67,13.71 -16.52,24.04 -2.86,32 -58.5,85.02 -97.31,112.37 -7.46,5.41 -12.23,14.06 -12.52,23.28 -0.21,9.28 3.81,18.2 11.04,24.04 33.4,27.21 82.48,40.92 146.04,40.92 122.07,0 260.16,-49.92 265.99,-52.03 12.87,-4.64 20.9,-17.5 19.33,-31.15 -1.4,-13.57 -12.08,-24.4 -25.58,-26.16 -107.44,-14.06 -259.74,-112.5 -261.29,-113.55 -4.92,-3.17 -10.54,-4.79 -16.17,-4.79" /><path
       inkscape:connector-curvature="0"
       id="path80"
       style="fill:#7b7979;fill-opacity:1;fill-rule:nonzero;stroke:none"
       d="m 1935.52,3283.56 c -11.32,0 -18.07,0.71 -18.07,0.71 -8.94,1.05 -17.16,6.19 -21.95,13.92 -4.92,7.82 -5.89,17.36 -2.74,25.8 l 90.37,244.91 c 3.64,9.63 12.08,16.87 22.13,18.77 1.69,0.35 165.45,32.69 278.23,94.01 30.37,16.46 62.15,24.81 94.5,24.81 94.92,0 170.01,-72.2 185.48,-112.85 11.6,-30.37 2.55,-75.02 -22.36,-111.23 -31.35,-45.56 -81.71,-70.52 -142.03,-70.52 l -9.42,0.07 c -77.27,0 -188.36,-33.88 -330.19,-100.83 -50.61,-24.05 -99.34,-27.57 -123.95,-27.57" /><path
       inkscape:connector-curvature="0"
       id="path82"
       style="fill:#7b7979;fill-opacity:1;fill-rule:nonzero;stroke:none"
       d="m 2592.02,3419.83 c -6.89,0 -13.79,2.47 -19.41,7.32 -12.23,10.61 -13.71,28.9 -3.44,41.34 l 0.28,0.35 c 15.89,18.57 3.25,121.85 -27.07,221.07 -2.25,7.66 -1.41,15.96 2.45,23.13 3.87,6.89 10.55,12.09 18.3,14.2 l 273.3,73.97 c 2.66,0.56 5.34,0.91 7.88,0.91 7.03,0 13.91,-2.46 19.39,-7.17 7.38,-6.39 11.25,-16.17 10,-25.94 -4.93,-42.26 -143.73,-207.77 -259.32,-339.05 -5.91,-6.61 -14.2,-10.13 -22.36,-10.13" /><path
       inkscape:connector-curvature="0"
       id="path84"
       style="fill:#393536;fill-opacity:1;fill-rule:nonzero;stroke:none"
       d="m 1146.67,3213.4 c 54.49,75.65 153.63,188.23 235.21,196.87 47.32,4.99 81.14,-50.77 98.64,-112.43 -7.03,79.94 -46.55,185.76 -110.96,179.03 -81.7,-8.66 -180.7,-121.23 -235.26,-196.82 -25.74,-35.51 -20.1,-72.84 -3.1,-104.77 2.19,12.66 6.34,25.53 15.47,38.12" /><path
       inkscape:connector-curvature="0"
       id="path86"
       style="fill:#393536;fill-opacity:1;fill-rule:nonzero;stroke:none"
       d="m 937.57,2914.07 c 39.649,67.01 117.34,163.13 123.25,199.63 l 48.31,-81.99 c 10.98,9.57 17.73,15.82 17.73,15.82 l -78.48,132.89 c -9.14,-56.03 -187.88,-253.12 -137.107,-268.59 6.883,-2.12 15.957,-0.98 26.297,2.24" /><path
       inkscape:connector-curvature="0"
       id="path88"
       style="fill:#393536;fill-opacity:1;fill-rule:nonzero;stroke:none"
       d="m 1601.59,3745.95 c 47.96,27.34 208.98,62.15 278.3,-126.56 11.97,-32.13 19.97,-59.99 26.72,-86.22 -4.43,41.84 -16.31,90.92 -39.09,152.93 -69.19,188.73 -230.34,153.85 -278.23,126.51 -48.02,-27.37 -177.82,-197.52 -177.82,-197.52 8.44,-18.34 16.32,-35.65 23.48,-52.38 32.21,41.48 127.21,160.74 166.64,183.24" /><path
       inkscape:connector-curvature="0"
       id="path90"
       style="fill:#393536;fill-opacity:1;fill-rule:nonzero;stroke:none"
       d="m 1691.95,3949.07 c 25.52,66.17 64.19,158.99 98.43,209.18 56.95,83.26 175.43,290.39 291.32,280.41 56.81,-4.92 92.59,-17.79 111.22,-38.53 14.06,61.03 -20.24,96.19 -123.6,105.19 -115.81,10.06 -234.28,-197.09 -291.24,-280.41 -57.09,-83.32 -126.42,-285.04 -126.42,-285.04 12.16,7.44 26.02,9.42 40.29,9.2" /><path
       inkscape:connector-curvature="0"
       id="path92"
       style="fill:#393536;fill-opacity:1;fill-rule:nonzero;stroke:none"
       d="m 2390.15,4538.64 c 34.8,25.61 70.31,47.68 92.81,50.57 0,0 -246.37,49.71 -347.13,4.92 0,0 36.35,-22.09 72.85,-51.68 55.96,7.09 124.95,2.74 181.47,-3.81" /><path
       inkscape:connector-curvature="0"
       id="path94"
       style="fill:#393536;fill-opacity:1;fill-rule:nonzero;stroke:none"
       d="m 1957.95,3818.23 c 54.97,41.34 163.6,125.08 200.38,169.38 49.92,60.25 342,265.08 431.72,195.82 42.9,-33.05 78.06,-65.74 97.17,-98.09 13.92,53.79 -37.11,108.77 -109.54,164.67 -89.72,69.26 -381.8,-135.49 -431.72,-195.67 -50.07,-60.4 -233.24,-193.86 -233.24,-193.86 18.5,-5.63 33.05,-21.45 45.23,-42.25" /><path
       inkscape:connector-curvature="0"
       id="path96"
       style="fill:#393536;fill-opacity:1;fill-rule:nonzero;stroke:none"
       d="m 2705.5,4241.08 c 62.02,21.38 148.71,11.74 219.38,-3.37 37,15.33 75.58,27.85 110.38,32.49 0,0 -278.08,101.31 -383.2,15.88 0,0 26.58,-18.63 53.44,-45" /><path
       inkscape:connector-curvature="0"
       id="path98"
       style="fill:#393536;fill-opacity:1;fill-rule:nonzero;stroke:none"
       d="m 2023.33,3491.9 c 0,0 168.33,32.7 286.66,97.04 99.64,54.14 189.8,-7.04 224.51,-50.63 4.71,17.65 5.36,33.97 1.2,44.79 -14.56,38.32 -119.74,136.75 -238,72.42 -118.28,-64.34 -286.74,-97.03 -286.74,-97.03 l -90.29,-244.69 c 0,0 14.78,-1.47 37.05,0.43 l 65.61,177.67" /><path
       inkscape:connector-curvature="0"
       id="path100"
       style="fill:#393536;fill-opacity:1;fill-rule:nonzero;stroke:none"
       d="m 2790.58,3688.01 c 30.23,39.58 52.17,72.14 53.73,84.44 l -273.46,-73.83 c 0,0 8.53,-27.98 17.1,-65.39 l 202.63,54.78" /></g></svg>